# xmcd
# 
# Track frame offsets:
#     150
#     2975
#     29102
#     67287
#     96662
#     162225
# 
# Disc length: 3316
# 
# Revision: 1
# Processed by: cddbd v1.5.2PL0 Copyright (c) Steve Scherf et al.
# Submitted via: BonkEnc v1.0.8
# 
DISCID=580cf206
DTITLE=Tal Farlow, Larry Coryell, John Abercrombie, Larry Carlton, John Scofirld - All Strings Attached
DYEAR=1987
DGENRE=Jazz
TTITLE0=Introduction by John Scofield
TTITLE1=Misty
TTITLE2=Meditations
TTITLE3=My Romance
TTITLE4=Autum Leaves
TTITLE5=All Blues
EXTD=YEAR: 1987
EXTT0=
EXTT1=
EXTT2=
EXTT3=
EXTT4=
EXTT5=
PLAYORDER=
